<svg id="logo" xmlns="http://www.w3.org/2000/svg" viewBox="0 0 78.29 106.7"><defs><style>.cls-1{fill:#fff;}</style></defs><path class="cls-1" d="M36.6,0V5.82h5.3V0H44V14.08H41.9V7.8H36.6v6.28H34.45V0Z"/><path class="cls-1" d="M0,23.11H2.17V32a4.11,4.11,0,0,0,.64,2.48,2.25,2.25,0,0,0,1.94.87,2.27,2.27,0,0,0,2-.87A4.19,4.19,0,0,0,7.34,32V23.11H9.48v9a7.15,7.15,0,0,1-.31,2.19,4.56,4.56,0,0,1-.93,1.66A4.36,4.36,0,0,1,6.75,37a5,5,0,0,1-2,.38,5,5,0,0,1-2-.38,4.31,4.31,0,0,1-1.5-1.08,4.69,4.69,0,0,1-.92-1.66A6.86,6.86,0,0,1,0,32.07Z"/><path class="cls-1" d="M23,37.19V23.11h2.57l2.2,7.26L30,23.11H32.5V37.19H30.39V26.55L28.45,32.9H27L25.1,26.54V37.19Z"/><path class="cls-1" d="M45.35,37.19l4-14.08h2.83l4,14.08H53.84l-.9-3.59H48.55l-1,3.59Zm7-5.48-1.69-6.38-1.64,6.38Z"/><path class="cls-1" d="M69.17,37.19V23.11h2.08L76.16,33V23.11h2.13V37.19H76.2l-4.89-9.85v9.85Z"/><path class="cls-1" d="M27.51,46.21a5.68,5.68,0,0,1,1.89.3,4.37,4.37,0,0,1,1.46.84,3.76,3.76,0,0,1,.93,1.32,4.84,4.84,0,0,1,.11,3.14A3.94,3.94,0,0,1,31.29,53a3.75,3.75,0,0,1-1,.89,3.86,3.86,0,0,1-1.28.54l3.22,5.86H29.83l-3-5.63H25.14v5.63H23V46.21Zm-2.37,6.5h2.51a2.21,2.21,0,0,0,1.72-.63A2.34,2.34,0,0,0,30,50.43a2.14,2.14,0,0,0-.64-1.63,2.47,2.47,0,0,0-1.8-.62H25.14Z"/><path class="cls-1" d="M45.52,53.26a11.66,11.66,0,0,1,.36-3,7,7,0,0,1,1-2.28,4.81,4.81,0,0,1,6-1.44A4.79,4.79,0,0,1,54.55,48a7,7,0,0,1,1,2.28,12.76,12.76,0,0,1,0,6,6.87,6.87,0,0,1-1,2.27A4.79,4.79,0,0,1,52.91,60a4.67,4.67,0,0,1-6-1.44,6.86,6.86,0,0,1-1-2.27A11.61,11.61,0,0,1,45.52,53.26Zm5.19-5.21a2.42,2.42,0,0,0-2.27,1.36,8.23,8.23,0,0,0-.73,3.85,8.16,8.16,0,0,0,.73,3.84,2.4,2.4,0,0,0,2.27,1.35A2.43,2.43,0,0,0,53,57.1a8,8,0,0,0,.74-3.84A8.1,8.1,0,0,0,53,49.41,2.42,2.42,0,0,0,50.71,48.05Z"/><path class="cls-1" d="M34.45,83.4V69.32h4.69a5.69,5.69,0,0,1,1.75.26,3.92,3.92,0,0,1,1.34.77,3.62,3.62,0,0,1,.87,1.18,3.56,3.56,0,0,1,.32,1.52A3.44,3.44,0,0,1,43,74.72a3.73,3.73,0,0,1-1,1.21,3.62,3.62,0,0,1,1.38,1.32,3.77,3.77,0,0,1,.55,2,4.1,4.1,0,0,1-.36,1.76,3.68,3.68,0,0,1-1,1.28,4.25,4.25,0,0,1-1.39.79,4.83,4.83,0,0,1-1.62.27Zm4.73-8.2a2,2,0,0,0,1.59-.58,2,2,0,0,0,.52-1.43,1.77,1.77,0,0,0-.62-1.44A2.54,2.54,0,0,0,39,71.23H36.58v4Zm.21,6.28a2.52,2.52,0,0,0,1.74-.58,2.05,2.05,0,0,0,.66-1.62,2.18,2.18,0,0,0-.64-1.68A2.67,2.67,0,0,0,39.3,77H36.58v4.46Z"/><path class="cls-1" d="M13.28,99.47a12.13,12.13,0,0,1,.35-3,7.24,7.24,0,0,1,1-2.28,4.79,4.79,0,0,1,6-1.44,4.7,4.7,0,0,1,1.64,1.44,7,7,0,0,1,1,2.28,13.12,13.12,0,0,1,0,6,6.88,6.88,0,0,1-1,2.27,4.7,4.7,0,0,1-1.64,1.44,4.67,4.67,0,0,1-6-1.44,7.08,7.08,0,0,1-1-2.27A12.08,12.08,0,0,1,13.28,99.47Zm5.19-5.21a2.41,2.41,0,0,0-2.27,1.36,10.42,10.42,0,0,0,0,7.69,2.44,2.44,0,0,0,2.28,1.36,2.45,2.45,0,0,0,2.29-1.36,10.36,10.36,0,0,0,0-7.69A2.43,2.43,0,0,0,18.47,94.26Z"/><path class="cls-1" d="M65.2,92.42v2h-4V106.5H59V94.41h-4v-2Z"/></svg>